<?xml version="1.0" standalone="no"?>
<!DOCTYPE svg PUBLIC "-//W3C//DTD SVG 20010904//EN"
 "http://www.w3.org/TR/2001/REC-SVG-20010904/DTD/svg10.dtd">
<svg version="1.0" xmlns="http://www.w3.org/2000/svg"
 width="2100.000000pt" height="2100.000000pt" viewBox="0 0 2100.000000 2100.000000"
 preserveAspectRatio="xMidYMid meet">
<metadata>
Created by potrace 1.14, written by Peter Selinger 2001-2017
</metadata>
<g transform="translate(0.000000,2100.000000) scale(0.100000,-0.100000)"
fill="#000000" stroke="none">
<path d="M10168 17995 c-1 -1 -61 -6 -133 -10 -71 -3 -141 -8 -155 -10 -14 -2
-56 -6 -95 -10 -134 -13 -160 -15 -205 -20 -25 -3 -70 -9 -100 -14 -30 -6 -75
-12 -100 -15 -25 -4 -54 -8 -65 -10 -11 -2 -40 -7 -65 -11 -51 -8 -46 -7 -163
-29 -125 -24 -430 -93 -507 -115 -36 -10 -101 -29 -145 -41 -606 -169 -1257
-455 -1820 -798 -188 -115 -433 -280 -590 -397 -366 -273 -763 -632 -1055
-955 -47 -52 -94 -103 -105 -115 -11 -12 -37 -42 -58 -68 -21 -26 -44 -52 -51
-59 -26 -27 -246 -308 -322 -413 -304 -419 -611 -950 -794 -1375 -18 -41 -43
-98 -56 -127 -13 -28 -24 -57 -24 -63 0 -7 -7 -24 -15 -38 -37 -67 -185 -491
-254 -727 -56 -195 -149 -592 -166 -710 -2 -11 -8 -48 -15 -82 -24 -130 -41
-250 -65 -453 -2 -19 -7 -67 -10 -107 -4 -40 -8 -85 -10 -100 -19 -159 -27
-838 -12 -1058 4 -60 9 -141 12 -180 4 -64 9 -115 21 -215 18 -154 27 -227 39
-300 8 -47 16 -101 19 -120 9 -57 52 -277 76 -385 12 -55 23 -109 26 -120 22
-111 142 -516 211 -710 142 -405 367 -900 552 -1218 28 -49 51 -90 51 -92 0
-2 10 -20 23 -39 12 -19 38 -60 57 -92 340 -563 836 -1165 1340 -1625 104 -95
290 -254 360 -309 25 -19 47 -37 50 -40 6 -7 168 -130 280 -212 82 -60 396
-270 420 -281 8 -4 27 -15 42 -25 95 -61 362 -210 523 -292 516 -262 999 -443
1560 -584 72 -18 148 -37 170 -41 22 -5 42 -9 45 -10 3 0 23 -5 45 -10 22 -4
45 -9 50 -11 12 -2 173 -34 200 -39 57 -10 215 -35 250 -40 21 -2 73 -9 115
-15 89 -12 154 -19 235 -25 33 -3 78 -7 100 -10 215 -26 955 -27 1220 -1 17 2
66 7 110 11 155 14 240 24 275 30 14 2 45 7 70 10 284 38 718 130 975 207 55
16 123 36 151 43 67 18 340 112 474 162 521 198 1063 480 1535 800 143 98 388
274 405 293 3 3 50 41 105 84 55 44 102 82 105 85 3 4 34 31 70 61 245 207
552 512 774 770 60 69 118 136 130 150 50 57 239 304 332 435 166 233 363 549
489 785 79 148 126 236 131 250 4 8 31 66 60 128 30 62 54 115 54 118 0 3 9
25 20 50 11 24 30 65 41 91 59 131 167 423 235 638 58 180 138 466 151 535 2
14 11 54 19 90 14 60 29 129 40 190 3 14 7 32 9 40 2 8 7 31 10 50 3 19 12 71
20 115 8 44 17 100 20 125 4 25 8 59 11 75 14 105 34 271 39 335 4 41 8 91 10
110 14 131 20 329 20 615 0 284 -10 589 -20 605 -1 3 -6 43 -9 90 -4 47 -9
105 -12 130 -8 74 -34 273 -38 300 -3 14 -12 68 -21 120 -22 131 -24 142 -45
245 -6 28 -12 59 -14 70 -2 11 -7 31 -10 45 -143 626 -318 1124 -586 1675 -74
153 -132 261 -290 540 -12 22 -28 47 -36 56 -8 8 -14 19 -14 23 0 14 -293 452
-362 541 -151 196 -270 346 -310 392 -88 101 -171 195 -223 252 -78 85 -342
347 -440 438 -93 84 -110 99 -185 163 -25 21 -56 48 -70 60 -49 42 -66 55
-110 90 -25 19 -47 37 -50 40 -3 3 -34 28 -70 55 -36 27 -67 52 -70 55 -9 10
-273 196 -380 266 -471 313 -1001 583 -1525 777 -210 78 -660 219 -771 241
-10 3 -89 20 -174 39 -149 34 -281 61 -345 71 -16 3 -70 12 -120 20 -119 20
-293 43 -380 51 -38 4 -81 8 -95 10 -14 2 -63 7 -110 10 -47 3 -107 8 -135 11
-58 6 -801 14 -807 9z m782 -609 c20 -2 78 -7 130 -11 52 -3 106 -8 120 -10
14 -2 50 -6 80 -10 49 -5 182 -22 235 -30 577 -83 1260 -281 1753 -506 34 -16
65 -29 67 -29 8 0 363 -176 440 -218 203 -111 640 -381 665 -411 3 -3 28 -21
55 -40 105 -72 404 -303 456 -353 8 -7 32 -28 54 -47 205 -175 492 -459 677
-671 31 -36 67 -76 79 -90 50 -57 250 -313 327 -417 274 -374 556 -868 737
-1289 26 -60 53 -123 61 -141 49 -110 155 -407 220 -618 35 -117 127 -470 137
-530 3 -16 12 -62 21 -102 24 -112 58 -314 76 -453 6 -47 13 -99 15 -116 2
-16 7 -66 10 -110 4 -43 8 -90 10 -103 26 -163 26 -981 0 -1166 -2 -16 -6 -57
-9 -90 -10 -112 -18 -180 -32 -275 -8 -52 -17 -112 -20 -135 -2 -22 -16 -101
-30 -175 -21 -113 -38 -189 -89 -410 -22 -96 -97 -353 -141 -482 -30 -90 -57
-170 -59 -178 -8 -31 -94 -250 -110 -279 -8 -17 -16 -34 -16 -38 -7 -47 -264
-583 -334 -693 -14 -22 -25 -42 -25 -45 0 -10 -184 -311 -253 -414 -380 -569
-807 -1046 -1337 -1495 -90 -76 -315 -251 -380 -296 -12 -8 -50 -35 -83 -59
-143 -104 -464 -304 -627 -393 -203 -110 -331 -174 -572 -282 -249 -112 -595
-236 -883 -316 -128 -36 -354 -93 -415 -104 -14 -3 -81 -16 -150 -30 -145 -29
-183 -35 -300 -51 -30 -4 -57 -8 -60 -10 -4 -3 -69 -11 -169 -21 -20 -1 -61
-6 -91 -9 -30 -3 -77 -7 -105 -10 -268 -27 -971 -27 -1170 0 -16 2 -61 6 -100
10 -38 3 -81 7 -95 9 -14 2 -50 7 -80 11 -94 11 -230 31 -285 41 -11 2 -38 6
-60 9 -22 3 -47 7 -55 10 -8 2 -28 7 -45 10 -321 56 -1027 259 -1167 336 -10
5 -22 9 -27 9 -19 0 -369 154 -526 231 -144 71 -359 185 -442 235 -17 10 -57
34 -90 53 -92 53 -386 250 -518 346 -104 77 -381 297 -440 351 -12 11 -63 57
-115 104 -145 129 -402 390 -545 551 -25 28 -139 163 -214 254 -24 29 -153
197 -173 226 -10 13 -39 53 -65 89 -54 75 -253 377 -253 384 0 3 -13 24 -29
48 -50 74 -198 346 -285 523 -212 429 -369 856 -492 1333 -42 162 -115 512
-128 612 -3 25 -8 56 -11 70 -8 50 -35 267 -40 335 -4 39 -8 84 -10 100 -26
190 -26 960 0 1170 2 17 6 62 10 100 3 39 8 86 10 105 3 19 7 58 10 86 3 29 8
62 10 75 3 13 7 42 10 64 3 22 7 51 9 65 3 14 7 41 10 60 3 19 15 82 26 140
29 147 30 147 34 173 2 12 10 45 16 72 6 28 13 59 16 70 2 11 26 103 53 205
118 440 300 912 509 1320 67 131 94 181 154 288 29 53 138 231 177 292 20 30
40 63 46 73 23 41 231 334 280 395 129 162 260 324 282 348 15 17 62 69 103
115 97 108 407 418 489 489 36 30 69 60 75 66 6 5 54 46 106 90 861 725 1865
1221 2963 1464 76 17 155 33 175 36 20 3 53 9 72 14 19 5 60 12 90 16 30 4 57
8 60 9 3 1 32 5 65 9 32 4 67 9 76 11 19 4 110 16 159 21 35 3 119 12 195 19
22 2 94 7 160 11 66 3 121 8 123 9 5 5 711 -4 752 -9z"/>
<path d="M9290 11613 c-187 -30 -321 -71 -430 -130 -214 -116 -349 -309 -394
-561 l-6 -32 277 2 276 3 17 51 c53 155 153 223 335 229 175 6 290 -49 299
-145 11 -112 -87 -223 -216 -245 -18 -3 -40 -8 -48 -10 -12 -3 -108 -12 -217
-19 -29 -2 -30 -3 -37 -61 -14 -108 -22 -163 -31 -215 -2 -14 -7 -47 -10 -75
-3 -27 -8 -62 -11 -77 -5 -27 -4 -28 33 -29 21 -1 49 -3 63 -4 14 -1 54 -4 90
-5 124 -4 195 -28 252 -85 70 -71 59 -179 -29 -261 -134 -126 -440 -127 -535
-2 -14 19 -33 58 -42 86 -17 59 -16 54 -16 85 l0 22 -274 0 c-151 0 -278 -3
-282 -7 -8 -8 -9 -211 -1 -248 25 -120 65 -205 130 -277 105 -115 241 -176
467 -208 58 -9 287 -9 370 0 529 53 878 342 880 726 1 93 -4 121 -37 188 -47
99 -136 175 -261 226 -51 21 -53 23 -28 29 43 11 137 57 198 98 109 73 181
184 215 332 9 41 5 202 -6 243 -51 186 -250 317 -556 367 -47 8 -398 15 -435
9z"/>
<path d="M12066 11573 c-2 -10 -7 -43 -11 -73 -4 -30 -8 -62 -10 -70 -1 -8 -8
-51 -15 -95 -7 -44 -13 -87 -15 -95 -1 -8 -6 -37 -9 -63 -4 -27 -9 -56 -11
-65 -1 -10 -6 -39 -9 -67 -4 -27 -9 -57 -11 -65 -2 -8 -6 -35 -9 -60 -3 -25
-8 -54 -10 -65 -2 -11 -7 -42 -10 -70 -4 -27 -9 -57 -11 -65 -2 -8 -6 -37 -10
-65 -3 -27 -8 -63 -11 -78 -3 -16 -7 -38 -9 -50 -2 -23 -14 -97 -20 -132 -2
-11 -6 -45 -10 -75 -9 -64 -8 -58 -24 -135 -7 -33 -26 -87 -42 -120 -51 -105
-124 -136 -302 -130 -59 2 -112 7 -117 10 -6 3 -14 -4 -19 -17 -7 -18 -36
-199 -56 -343 -1 -11 -6 -44 -10 -74 -3 -30 -8 -62 -10 -72 -4 -21 7 -25 100
-36 90 -10 415 -10 480 -1 236 36 391 160 468 375 26 71 55 175 63 223 3 14 7
36 9 50 6 29 11 60 20 115 3 22 17 114 31 205 14 91 27 181 30 200 3 19 7 46
10 60 2 14 6 45 9 70 3 25 12 83 20 130 8 47 16 101 19 120 3 19 14 94 25 165
11 72 23 150 26 175 3 25 8 52 10 60 2 8 6 38 10 65 3 28 8 57 10 65 2 8 7 36
10 63 l5 47 -289 0 c-267 0 -290 -1 -295 -17z"/>
<path d="M10445 9968 c-4 -24 -9 -50 -10 -58 -3 -18 -15 -95 -20 -130 -2 -14
-6 -43 -10 -65 -3 -23 -7 -50 -9 -60 -2 -11 -7 -42 -10 -70 -7 -50 -10 -71
-21 -133 l-5 -32 306 2 c264 3 307 5 309 18 2 8 8 51 15 95 7 44 14 89 16 99
2 11 8 54 14 95 10 72 14 97 25 166 3 17 8 49 11 73 l6 42 -305 0 -305 0 -7
-42z"/>
</g>
</svg>
